<svg width="18" height="16" viewBox="0 0 18 16" fill="none" xmlns="http://www.w3.org/2000/svg">
<path fill-rule="evenodd" clip-rule="evenodd" d="M8.34627 1.16209C8.633 0.652351 9.36691 0.65235 9.65364 1.16209L17.3713 14.8823C17.6525 15.3822 17.2912 16 16.7176 16H1.28234C0.708721 16 0.347437 15.3822 0.62866 14.8823L8.34627 1.16209ZM8.99996 5.38173C9.49701 5.38173 9.89996 5.78467 9.89996 6.28173V9.36953C9.89996 9.86658 9.49701 10.2695 8.99996 10.2695C8.5029 10.2695 8.09996 9.86658 8.09996 9.36953V6.28173C8.09996 5.78467 8.5029 5.38173 8.99996 5.38173ZM10.1 13C10.1 12.3925 9.60747 11.9 8.99996 11.9C8.39244 11.9 7.89996 12.3925 7.89996 13V13.0685C7.89996 13.6761 8.39244 14.1685 8.99996 14.1685C9.60747 14.1685 10.1 13.6761 10.1 13.0685V13Z" fill="black"/>
</svg>
